<svg width="156" height="75" viewBox="0 0 156 75" fill="none" xmlns="http://www.w3.org/2000/svg">
<g clip-path="url(#clip0_2246_43)">
<mask id="mask0_2246_43" style="mask-type:luminance" maskUnits="userSpaceOnUse" x="0" y="0" width="156" height="74">
<path d="M156 0H0V73.7225H156V0Z" fill="white"/>
</mask>
<g mask="url(#mask0_2246_43)">
<path d="M129.708 67.7785C147.985 64.0815 154.658 47.8641 154.658 47.8641C154.658 30.1515 83.5106 50.8192 66.3093 50.8192C49.1079 50.8193 -1.21043 36.5284 0.939768 42.606C0.939768 42.606 16.017 62.6564 25.3568 67.7785C34.6967 72.9002 55.1469 74.5982 77.6449 67.7785C100.143 60.958 111.431 71.4748 129.708 67.7785Z" stroke="black" stroke-width="2"/>
<path d="M28.8744 37.4912C28.4539 38.0802 27.8495 38.3748 27.0611 38.3748C26.8509 38.3748 26.6407 38.3479 26.4305 38.2944C25.8523 36.9558 25.4187 35.0683 25.1297 32.632C24.8669 30.1689 24.6698 28.5491 24.5384 27.7727C21.6741 27.6656 18.8097 27.612 15.9453 27.612C13.081 27.612 10.5188 27.7325 8.25893 27.9735C8.0224 29.0712 7.7596 30.7177 7.47054 32.913C7.20774 35.0817 7.01068 36.5408 6.87928 37.2904C5.93326 38.0669 5.07921 38.1739 4.31714 37.6117C4.39597 36.9692 4.51423 35.9518 4.6719 34.5596C4.82957 33.1674 4.96096 31.9894 5.06607 31.0256C5.19747 30.035 5.38142 28.79 5.61792 27.2908C5.85443 25.7915 6.07779 24.5064 6.28802 23.4355C6.52455 22.3378 6.83988 21.1197 7.23407 19.781C7.6282 18.4156 8.03553 17.251 8.45599 16.2872C8.87645 15.3233 9.38891 14.3461 9.9933 13.3555C10.624 12.3649 11.2941 11.5618 12.0036 10.946C13.6328 9.58055 15.4066 8.89788 17.325 8.89788C19.2433 8.89788 20.8331 9.64752 22.0945 11.1468C23.3822 12.646 24.3544 14.6139 25.0114 17.0502C25.6684 19.4865 26.1939 21.9362 26.5881 24.3993C26.9823 26.8624 27.3633 29.379 27.7312 31.9493C28.0991 34.5194 28.4802 36.3668 28.8744 37.4912ZM21.5427 15.2029C21.0433 13.891 20.3995 12.8736 19.6112 12.1508C18.8228 11.4011 17.8505 11.0263 16.6943 11.0263C15.538 11.0263 14.4212 11.6019 13.3438 12.7532C12.2664 13.9044 11.4123 15.3368 10.7816 17.0502C9.65164 20.2362 8.94212 23.1812 8.65306 25.8852C11.2809 25.5907 13.9219 25.4434 16.576 25.4434C19.2302 25.4434 21.7923 25.5238 24.2625 25.6844C24.1574 25.2828 23.9603 24.3324 23.6712 22.8331C23.3822 21.3338 23.08 20.022 22.7646 18.8975C22.4755 17.7463 22.0683 16.5148 21.5427 15.2029ZM48.4837 36.5675C48.0107 37.0763 47.472 37.3306 46.8676 37.3306C45.7376 37.3306 44.8967 36.7148 44.3449 35.4833C43.793 34.2517 43.4646 32.7524 43.3594 30.9854C43.2806 29.2184 43.228 27.4514 43.2018 25.6844C43.1755 23.9174 43.031 22.4181 42.7682 21.1866C42.5316 19.955 42.0718 19.3393 41.3885 19.3393C40.4688 19.3393 39.6804 20.1826 39.0235 21.8693C38.3928 23.556 37.946 25.43 37.6833 27.4916C36.9475 33.2478 36.238 36.4739 35.5547 37.1699C35.0817 37.4109 34.6744 37.5314 34.3328 37.5314C33.9912 37.5314 33.7021 37.4912 33.4656 37.4109C32.9137 34.9478 32.559 30.7043 32.4013 24.6804C32.3488 21.6819 32.2962 19.7409 32.2436 18.8574C32.7955 18.4825 33.2685 18.2951 33.6627 18.2951C34.0568 18.2951 34.3722 18.3353 34.6087 18.4156C34.7401 19.5668 34.8058 21.9228 34.8058 25.4836C34.8321 29.0444 34.8583 31.0925 34.8846 31.628C35.016 31.0658 35.1737 30.1555 35.3576 28.8972C35.5679 27.6388 35.7518 26.6081 35.9095 25.8049C36.0671 24.9749 36.3168 24.0111 36.6584 22.9134C37 21.8158 37.381 20.9456 37.8015 20.3031C38.222 19.6338 38.8001 19.0715 39.5359 18.6164C40.2717 18.1345 41.0995 17.8935 42.0192 17.8935C43.2543 17.8935 44.1477 18.4691 44.6996 19.6204C45.2777 20.7448 45.5931 22.1504 45.6457 23.8371C45.6982 25.5238 45.7245 27.2373 45.7245 28.9775C45.7508 30.7177 45.961 32.3107 46.3552 33.7564C46.7756 35.2021 47.4852 36.1392 48.4837 36.5675ZM60.4504 20.8252C60.4504 18.8975 61.0547 17.9337 62.2637 17.9337C62.4999 17.9337 62.7367 17.9604 62.9728 18.014C62.9728 18.3353 62.9728 19.2054 62.9728 20.6244C62.9728 22.0433 63.1572 24.8813 63.5247 29.1381C63.8928 33.395 64.0765 36.5809 64.0765 38.696C64.0765 42.0694 63.4988 44.3986 62.3426 45.6837C61.1861 46.9688 59.2153 47.6114 56.4298 47.6114C53.6705 47.6114 51.069 46.701 48.6251 44.8805C49.0981 44.2915 49.7156 43.997 50.4777 43.997C50.7668 44.0238 51.2266 44.2246 51.8573 44.5994C53.7231 45.7239 55.2735 46.2861 56.5086 46.2861C58.3481 46.2861 59.6489 45.6971 60.411 44.5191C61.173 43.3411 61.5541 41.3599 61.5541 38.5755C61.5541 37.9062 61.4883 35.4967 61.3569 31.3469C61.3307 31.4272 61.2387 31.7753 61.0811 32.391C60.9234 32.98 60.8052 33.3682 60.7263 33.5556C60.6475 33.743 60.503 34.091 60.2927 34.5998C60.1088 35.1084 59.9116 35.4699 59.7014 35.684C59.4912 35.8983 59.2153 36.1526 58.8736 36.4471C58.2955 36.9825 57.5597 37.2503 56.6663 37.2503C55.7991 37.2503 55.1027 37.1298 54.5771 36.8889C54.0516 36.6479 53.6049 36.273 53.2369 35.7644C52.8953 35.2557 52.5799 34.7203 52.2909 34.158C52.0281 33.5958 51.8179 32.8863 51.6602 32.0295C51.5026 31.146 51.3712 30.3429 51.266 29.62C51.1872 28.8972 51.1215 28.0136 51.069 26.9695C51.0427 25.9254 51.0164 25.0553 50.9901 24.3592C50.9901 23.663 50.9901 22.7795 50.9901 21.7087V19.2991C51.2529 18.8439 51.726 18.6164 52.4091 18.6164C53.3552 18.6164 53.8282 18.9644 53.8282 19.6605L53.5917 23.556C53.5917 26.9561 53.9465 29.8878 54.656 32.3509C55.3655 34.8139 56.1013 36.0455 56.8633 36.0455C57.4415 36.0455 57.9539 35.7242 58.4007 35.0817C58.8474 34.4391 59.189 33.5423 59.4255 32.391C59.662 31.213 59.8591 30.1019 60.0168 29.0578C60.1744 28.0136 60.2796 26.7955 60.3321 25.4033C60.411 23.2883 60.4504 21.7622 60.4504 20.8252ZM71.4233 37.9731C70.9504 37.9731 70.7142 33.917 70.7142 25.8049C70.7142 22.378 70.7007 20.3031 70.6748 19.5802H69.8861C69.5186 19.5802 69.2295 19.5802 69.0192 19.5802C68.8089 19.5534 68.5327 19.54 68.1911 19.54C67.876 19.5133 67.6133 19.4731 67.4031 19.4196C67.2187 19.366 67.022 19.2991 66.8118 19.2188C66.4178 19.0581 66.2205 18.777 66.2205 18.3754C66.2205 17.8668 67.035 17.6124 68.664 17.6124C69.3737 17.6124 70.0175 17.6392 70.5958 17.6928C70.6224 17.1573 70.6353 16.4745 70.6353 15.6446C70.6612 14.7879 70.6877 14.1319 70.7142 13.6768C70.7401 13.1949 70.7666 12.6193 70.7932 11.9499C70.8456 11.2806 70.9109 10.7586 70.9899 10.3838C71.0953 10.0089 71.2266 9.59393 71.3839 9.1388C71.5417 8.65691 71.752 8.2955 72.0146 8.05452C72.2773 7.81355 72.5801 7.57263 72.9217 7.33165C73.5259 6.87652 74.5242 6.64893 75.9171 6.64893C77.3365 6.64893 78.3743 7.01039 79.0309 7.73326C79.7141 8.42931 80.319 9.62075 80.8444 11.3074C80.4504 11.7893 79.9904 12.0303 79.465 12.0303C79.2807 12.0303 79.0969 12.0035 78.9132 11.9499C78.4396 10.6649 78.0062 9.79477 77.6122 9.33963C77.244 8.8845 76.7316 8.65691 76.075 8.65691C75.4177 8.65691 74.9188 8.77739 74.5772 9.01831C74.2615 9.25929 74.0118 9.56717 73.8281 9.94202C73.4341 10.7452 73.2367 12.6862 73.2367 15.7651C73.2367 15.8989 73.2367 16.1399 73.2367 16.4879C73.2367 16.836 73.2367 17.1573 73.2367 17.4518L76.5874 17.1305C77.9013 17.1305 78.558 17.4384 78.558 18.0542C78.558 18.4558 78.2429 18.7235 77.6122 18.8574C76.9814 18.9912 76.1798 19.0715 75.2074 19.0983C74.2615 19.1251 73.6049 19.2054 73.2367 19.3393C73.1843 20.0889 73.1578 21.0795 73.1578 22.311C73.1578 23.5158 73.2238 25.4434 73.3551 28.094C73.4865 30.7177 73.5518 32.7257 73.5518 34.1179C73.5518 35.51 73.4075 36.5006 73.1184 37.0896C72.8557 37.6786 72.2909 37.9731 71.4233 37.9731Z" fill="black"/>
<path d="M89.5385 18.6675C95.4511 19.5776 105.798 36.7624 113.681 35.6998C121.565 34.6373 121.065 30.6709 121.065 25.2928C121.065 19.9147 115.838 14.2378 108.467 18.6439C101.095 23.05 95.9437 35.1392 89.1032 35.6998C82.2626 36.2604 77.1214 34.5942 78.2054 27.1074C79.29 19.6207 83.6253 17.7574 89.5385 18.6675Z" stroke="black" stroke-width="2"/>
<path d="M141.195 5.52452C140.197 14.7343 139.697 21.3071 139.697 25.2427C139.697 29.1515 140.052 33.0603 140.761 36.9692C140.236 37.5047 139.776 37.7724 139.381 37.7724C138.987 37.7724 138.659 37.7188 138.396 37.6117C137.844 35.6306 137.516 33.4753 137.411 31.1461C136.78 32.1635 136.307 32.8863 135.992 33.3147C135.703 33.7431 135.19 34.3722 134.455 35.2022C133.114 36.8086 131.525 37.6117 129.685 37.6117C128.292 37.6117 127.281 36.9558 126.65 35.6439C126.046 34.3053 125.743 32.6052 125.743 30.5437C125.743 28.4554 125.967 26.4743 126.413 24.6002C126.886 22.6993 127.688 21.0662 128.818 19.7007C129.948 18.3085 131.34 17.6124 132.996 17.6124C133.995 17.6124 134.914 17.8267 135.755 18.255C136.596 18.6833 137.175 19.259 137.49 19.9818C137.542 19.259 137.594 18.1479 137.648 16.6486C137.7 15.1493 137.752 13.8241 137.805 12.6728C137.884 11.4948 138.002 10.3035 138.16 9.09869C138.449 6.52853 139.093 5.24341 140.091 5.24341C140.433 5.24341 140.801 5.33711 141.195 5.52452ZM136.583 21.4276C136.268 20.8386 135.834 20.4102 135.282 20.1425C134.73 19.848 133.995 19.7007 133.075 19.7007C132.181 19.7007 131.34 20.2228 130.552 21.2669C129.002 23.3284 128.226 26.3136 128.226 30.2224C128.226 31.4808 128.424 32.7391 128.818 33.9974C129.212 35.2289 129.79 35.8447 130.552 35.8447C131.656 35.8447 132.733 35.1085 133.784 33.636C134.836 32.1635 135.65 30.4768 136.228 28.5759C136.806 26.6483 137.096 24.9214 137.096 23.3954C137.096 22.6725 136.925 22.0166 136.583 21.4276Z" fill="black"/>
</g>
</g>
<defs>
<clipPath id="clip0_2246_43">
<rect width="156" height="74.1277" fill="white"/>
</clipPath>
</defs>
</svg>
