<svg width="156" height="74" viewBox="0 0 156 74" fill="none" xmlns="http://www.w3.org/2000/svg">
<mask id="mask0_2218_22" style="mask-type:luminance" maskUnits="userSpaceOnUse" x="0" y="0" width="156" height="74">
<path d="M156 0H0V73.7225H156V0Z" fill="white"/>
</mask>
<g mask="url(#mask0_2218_22)">
<path d="M129.708 67.7785C147.985 64.0815 154.658 47.8641 154.658 47.8641C154.658 30.1515 83.5107 50.8192 66.3094 50.8192C49.108 50.8193 -1.21031 36.5284 0.93989 42.606C0.93989 42.606 16.0171 62.6564 25.3569 67.7785C34.6968 72.9002 55.147 74.5982 77.645 67.7785C100.144 60.958 111.432 71.4748 129.708 67.7785Z" stroke="black"/>
<path d="M28.8746 37.4912C28.4541 38.0802 27.8497 38.3748 27.0614 38.3748C26.8512 38.3748 26.6409 38.3479 26.4307 38.2944C25.8526 36.9558 25.419 35.0683 25.1299 32.632C24.8671 30.1689 24.6701 28.5491 24.5387 27.7727C21.6743 27.6656 18.8099 27.612 15.9456 27.612C13.0812 27.612 10.5191 27.7325 8.25917 27.9735C8.02264 29.0712 7.75985 30.7177 7.47078 32.913C7.20799 35.0817 7.01092 36.5408 6.87953 37.2904C5.93351 38.0669 5.07946 38.1739 4.31738 37.6117C4.39622 36.9692 4.51447 35.9518 4.67214 34.5596C4.82981 33.1674 4.96121 31.9894 5.06632 31.0256C5.19771 30.035 5.38166 28.79 5.61816 27.2908C5.85467 25.7915 6.07804 24.5064 6.28827 23.4355C6.5248 22.3378 6.84012 21.1197 7.23432 19.781C7.62845 18.4156 8.03578 17.251 8.45624 16.2872C8.8767 15.3233 9.38915 14.3461 9.99355 13.3555C10.6242 12.3649 11.2943 11.5618 12.0038 10.946C13.6331 9.58055 15.4069 8.89788 17.3252 8.89788C19.2435 8.89788 20.8334 9.64752 22.0948 11.1468C23.3824 12.646 24.3547 14.6139 25.0117 17.0502C25.6686 19.4865 26.1942 21.9362 26.5884 24.3993C26.9826 26.8624 27.3636 29.379 27.7315 31.9493C28.0993 34.5194 28.4804 36.3668 28.8746 37.4912ZM21.5429 15.2029C21.0436 13.891 20.3998 12.8736 19.6115 12.1508C18.8231 11.4011 17.8508 11.0263 16.6945 11.0263C15.5383 11.0263 14.4214 11.6019 13.344 12.7532C12.2666 13.9044 11.4126 15.3368 10.7819 17.0502C9.65189 20.2362 8.94236 23.1812 8.6533 25.8852C11.2812 25.5907 13.9222 25.4434 16.5763 25.4434C19.2304 25.4434 21.7926 25.5238 24.2627 25.6844C24.1576 25.2828 23.9605 24.3324 23.6715 22.8331C23.3824 21.3338 23.0802 20.022 22.7648 18.8975C22.4758 17.7463 22.0685 16.5148 21.5429 15.2029ZM48.484 36.5675C48.0109 37.0763 47.4723 37.3306 46.8678 37.3306C45.7379 37.3306 44.897 36.7148 44.3451 35.4833C43.7933 34.2517 43.4648 32.7524 43.3597 30.9854C43.2808 29.2184 43.2283 27.4514 43.202 25.6844C43.1757 23.9174 43.0312 22.4181 42.7684 21.1866C42.5319 19.955 42.072 19.3393 41.3888 19.3393C40.469 19.3393 39.6807 20.1826 39.0237 21.8693C38.393 23.556 37.9463 25.43 37.6835 27.4916C36.9477 33.2478 36.2382 36.4739 35.555 37.1699C35.0819 37.4109 34.6747 37.5314 34.333 37.5314C33.9914 37.5314 33.7023 37.4912 33.4658 37.4109C32.914 34.9478 32.5592 30.7043 32.4016 24.6804C32.349 21.6819 32.2964 19.7409 32.2439 18.8574C32.7957 18.4825 33.2687 18.2951 33.6629 18.2951C34.0571 18.2951 34.3725 18.3353 34.6089 18.4156C34.7403 19.5668 34.8061 21.9228 34.8061 25.4836C34.8323 29.0444 34.8586 31.0925 34.8849 31.628C35.0163 31.0658 35.1739 30.1555 35.3579 28.8972C35.5681 27.6388 35.752 26.6081 35.9097 25.8049C36.0674 24.9749 36.317 24.0111 36.6586 22.9134C37.0003 21.8158 37.3813 20.9456 37.8018 20.3031C38.2222 19.6338 38.8003 19.0715 39.5361 18.6164C40.272 18.1345 41.0997 17.8935 42.0195 17.8935C43.2545 17.8935 44.148 18.4691 44.6998 19.6204C45.278 20.7448 45.5934 22.1504 45.6459 23.8371C45.6984 25.5238 45.7247 27.2373 45.7247 28.9775C45.751 30.7177 45.9612 32.3107 46.3554 33.7564C46.7759 35.2021 47.4854 36.1392 48.484 36.5675ZM60.4506 20.8252C60.4506 18.8975 61.055 17.9337 62.264 17.9337C62.5001 17.9337 62.7369 17.9604 62.9731 18.014C62.9731 18.3353 62.9731 19.2054 62.9731 20.6244C62.9731 22.0433 63.1574 24.8813 63.5249 29.1381C63.893 33.395 64.0768 36.5809 64.0768 38.696C64.0768 42.0694 63.499 44.3986 62.3429 45.6837C61.1864 46.9688 59.2156 47.6114 56.43 47.6114C53.6708 47.6114 51.0692 46.701 48.6253 44.8805C49.0983 44.2915 49.7159 43.997 50.478 43.997C50.767 44.0238 51.2269 44.2246 51.8575 44.5994C53.7233 45.7239 55.2737 46.2861 56.5089 46.2861C58.3484 46.2861 59.6491 45.6971 60.4112 44.5191C61.1733 43.3411 61.5543 41.3599 61.5543 38.5755C61.5543 37.9062 61.4886 35.4967 61.3572 31.3469C61.3309 31.4272 61.239 31.7753 61.0813 32.391C60.9236 32.98 60.8054 33.3682 60.7265 33.5556C60.6477 33.743 60.5032 34.091 60.2929 34.5998C60.109 35.1084 59.9119 35.4699 59.7017 35.684C59.4914 35.8983 59.2156 36.1526 58.8739 36.4471C58.2958 36.9825 57.56 37.2503 56.6665 37.2503C55.7993 37.2503 55.1029 37.1298 54.5774 36.8889C54.0518 36.6479 53.6051 36.273 53.2372 35.7644C52.8956 35.2557 52.5802 34.7203 52.2911 34.158C52.0284 33.5958 51.8181 32.8863 51.6605 32.0295C51.5028 31.146 51.3714 30.3429 51.2663 29.62C51.1875 28.8972 51.1217 28.0136 51.0692 26.9695C51.0429 25.9254 51.0167 25.0553 50.9903 24.3592C50.9903 23.663 50.9903 22.7795 50.9903 21.7087V19.2991C51.2531 18.8439 51.7262 18.6164 52.4094 18.6164C53.3554 18.6164 53.8284 18.9644 53.8284 19.6605L53.592 23.556C53.592 26.9561 53.9467 29.8878 54.6562 32.3509C55.3657 34.8139 56.1015 36.0455 56.8636 36.0455C57.4417 36.0455 57.9542 35.7242 58.4009 35.0817C58.8476 34.4391 59.1892 33.5423 59.4258 32.391C59.6623 31.213 59.8593 30.1019 60.017 29.0578C60.1747 28.0136 60.2798 26.7955 60.3323 25.4033C60.4112 23.2883 60.4506 21.7622 60.4506 20.8252ZM71.4236 37.9731C70.9506 37.9731 70.7145 33.917 70.7145 25.8049C70.7145 22.378 70.7009 20.3031 70.675 19.5802H69.8864C69.5189 19.5802 69.2297 19.5802 69.0194 19.5802C68.8092 19.5534 68.5329 19.54 68.1913 19.54C67.8763 19.5133 67.6136 19.4731 67.4033 19.4196C67.219 19.366 67.0223 19.2991 66.812 19.2188C66.418 19.0581 66.2207 18.777 66.2207 18.3754C66.2207 17.8668 67.0352 17.6124 68.6643 17.6124C69.374 17.6124 70.0177 17.6392 70.5961 17.6928C70.6226 17.1573 70.6356 16.4745 70.6356 15.6446C70.6615 14.7879 70.688 14.1319 70.7145 13.6768C70.7404 13.1949 70.7669 12.6193 70.7934 11.9499C70.8458 11.2806 70.9112 10.7586 70.9901 10.3838C71.0955 10.0089 71.2269 9.59393 71.3841 9.1388C71.542 8.65691 71.7522 8.2955 72.0149 8.05452C72.2776 7.81355 72.5803 7.57263 72.9219 7.33165C73.5262 6.87652 74.5245 6.64893 75.9174 6.64893C77.3368 6.64893 78.3745 7.01039 79.0312 7.73326C79.7144 8.42931 80.3193 9.62075 80.8446 11.3074C80.4506 11.7893 79.9906 12.0303 79.4653 12.0303C79.2809 12.0303 79.0972 12.0035 78.9134 11.9499C78.4399 10.6649 78.0064 9.79477 77.6124 9.33963C77.2443 8.8845 76.7319 8.65691 76.0752 8.65691C75.4179 8.65691 74.9191 8.77739 74.5775 9.01831C74.2618 9.25929 74.0121 9.56717 73.8283 9.94202C73.4343 10.7452 73.237 12.6862 73.237 15.7651C73.237 15.8989 73.237 16.1399 73.237 16.4879C73.237 16.836 73.237 17.1573 73.237 17.4518L76.5876 17.1305C77.9016 17.1305 78.5583 17.4384 78.5583 18.0542C78.5583 18.4558 78.2432 18.7235 77.6124 18.8574C76.9816 18.9912 76.18 19.0715 75.2076 19.0983C74.2618 19.1251 73.6051 19.2054 73.237 19.3393C73.1846 20.0889 73.1581 21.0795 73.1581 22.311C73.1581 23.5158 73.224 25.4434 73.3554 28.094C73.4867 30.7177 73.5521 32.7257 73.5521 34.1179C73.5521 35.51 73.4078 36.5006 73.1186 37.0896C72.8559 37.6786 72.2911 37.9731 71.4236 37.9731Z" fill="black"/>
<path d="M89.5384 18.6675C95.451 19.5776 105.798 36.7624 113.681 35.6998C121.565 34.6373 121.065 30.6709 121.065 25.2928C121.065 19.9147 115.838 14.2378 108.467 18.6439C101.095 23.05 95.9436 35.1392 89.1031 35.6998C82.2625 36.2604 77.1213 34.5942 78.2052 27.1074C79.2899 19.6207 83.6252 17.7574 89.5384 18.6675Z" stroke="black"/>
<path d="M141.195 5.52452C140.197 14.7343 139.697 21.3071 139.697 25.2427C139.697 29.1515 140.052 33.0603 140.762 36.9692C140.236 37.5047 139.776 37.7724 139.382 37.7724C138.988 37.7724 138.659 37.7188 138.396 37.6117C137.844 35.6306 137.516 33.4753 137.411 31.1461C136.78 32.1635 136.307 32.8863 135.992 33.3147C135.703 33.7431 135.191 34.3722 134.455 35.2022C133.115 36.8086 131.525 37.6117 129.685 37.6117C128.293 37.6117 127.281 36.9558 126.65 35.6439C126.046 34.3053 125.744 32.6052 125.744 30.5437C125.744 28.4554 125.967 26.4743 126.413 24.6002C126.886 22.6993 127.688 21.0662 128.818 19.7007C129.948 18.3085 131.341 17.6124 132.996 17.6124C133.995 17.6124 134.914 17.8267 135.755 18.255C136.596 18.6833 137.175 19.259 137.49 19.9818C137.542 19.259 137.595 18.1479 137.648 16.6486C137.7 15.1493 137.753 13.8241 137.805 12.6728C137.884 11.4948 138.002 10.3035 138.16 9.09869C138.449 6.52853 139.093 5.24341 140.091 5.24341C140.433 5.24341 140.801 5.33711 141.195 5.52452ZM136.583 21.4276C136.268 20.8386 135.834 20.4102 135.282 20.1425C134.731 19.848 133.995 19.7007 133.075 19.7007C132.182 19.7007 131.341 20.2228 130.553 21.2669C129.002 23.3284 128.227 26.3136 128.227 30.2224C128.227 31.4808 128.424 32.7391 128.818 33.9974C129.212 35.2289 129.79 35.8447 130.553 35.8447C131.656 35.8447 132.733 35.1085 133.785 33.636C134.836 32.1635 135.651 30.4768 136.228 28.5759C136.807 26.6483 137.096 24.9214 137.096 23.3954C137.096 22.6725 136.925 22.0166 136.583 21.4276Z" fill="black"/>
</g>
</svg>
